<?xml version="1.0" encoding="utf-8"?>
<!-- Generator: Adobe Illustrator 28.1.0, SVG Export Plug-In . SVG Version: 6.00 Build 0)  -->
<svg version="1.1" id="Calque_1" xmlns="http://www.w3.org/2000/svg" xmlns:xlink="http://www.w3.org/1999/xlink" x="0px" y="0px"
	 viewBox="0 0 350 350" style="enable-background:new 0 0 350 350;" xml:space="preserve">
<g>
	<path d="M105.1,188.5c10.2-36.4,9.9-72.1,0.3-108.8c14.2,0,28.1-0.3,42.2,0.3c2.1,0.1,5.4,4.5,5.7,7.2c2.3,18.5,5.1,36.9,5.6,55.4
		c0.2,12.3-3.1,24.7-5.1,37c-1,6.4-4.6,9.3-11.6,8.9C129.8,188,117.7,188.5,105.1,188.5z"/>
	<path d="M50.1,203.4c-8.2-2.8-14.1-4.8-19.9-6.9c0.2-0.8,0.5-1.7,0.7-2.5c1.3,0.3,2.5,0.8,3.8,0.8c3-0.1,6.1-0.4,9.1-0.6
		c-0.3-2.9,0-6.2-0.9-8.9c-4.6-13.3,0.5-26.8,12.3-31.6c11.7-4.8,22.2,1.3,22.9,14.8c0.5,12.7-0.9,25.5-1.9,38.2
		c-0.4,6.4-1.8,12.7-2.4,19c-1.4,12.5,3.6,20,15.5,24.2c1.5,0.5,3.4,1.9,3.9,3.3c6.1,15.1,17.6,19.6,32.8,17.2
		c0.4-0.1,0.9,0.2,2,0.5c-4.5,9.3-8.5,18.7-21.4,18c-2.3-0.1-5.4,0-6.9,1.3c-9.7,7.8-19.3,4.5-29.4,1c-4-1.4-8.5-2.8-12.4-2.1
		c-7.3,1.5-11.2-1.9-12-8c-1-7.9-2.3-16.6-0.3-24c6.6-23.8,14.7-47.1,22.2-70.6c1.5-4.7,3.5-10-1.5-13c-2.8-1.7-7.8-1.8-11-0.5
		c-5.5,2.2-7.3,7.2-6.5,13.2C49.5,191.2,49.6,196,50.1,203.4z"/>
	<path d="M236.8,292.7c0.7-2.2,0.9-4.6,2.1-6.4c6.9-11,14.1-22,21.2-32.9c1.2-1.7,2.6-3.4,4.4-4.4c10-6,12.9-14.5,11-25.8
		c-2.2-14.2-4.1-28.5-4.9-42.8c-0.4-6.4,1-13.3,3.3-19.4c1.9-5.1,5.6-10.4,13.4-5.5c0.3-0.6,0.5-1.2,0.8-1.8
		c-2.4-4.4-4.7-8.9-8-14.9c6.8,3.6,12.2,5.9,16.9,9c3.4,2.3,6.7,5.4,8.8,8.8c5.6,9.2,10.4,19,16.3,30c-13.1-5.5-24.5-13.3-36.8-19.3
		c-0.7,0.5-1.4,1-2.1,1.5c4.2,11.1,8.5,22.3,12.4,32.4c-7.4-4.6-8.2-5.7-14.1-23c-4.3,3.5-5.6,7.8-1.8,13.3
		c13.8,20.2,16.4,44.7,25,66.8c1.6,4.1,2.1,9,1.6,13.3c-2,17.6-17.4,27-34.5,21.6c-2.8-0.8-5.8-1.4-8.4-2.5
		c-8.8-3.8-17-3.5-24.7,2.9C238.2,293.4,237.6,293,236.8,292.7z"/>
	<path d="M203.5,188.5c10.4-36.7,10.2-72.3,0.3-108.9c12.1,0,24.2-0.6,36.2,0.4c2.8,0.2,6.5,5.8,7.4,9.4c5.2,20.8,6.5,42.1,4.2,63.4
		c-1,10-3.5,19.8-5.7,29.6c-0.9,4.4-3.9,6.3-8.7,6.2C226.1,188.2,215,188.5,203.5,188.5z"/>
	<path d="M156.9,188.4c10.4-36.8,10.2-72.5,0.2-108.8c12.3,0,24.4-0.3,36.6,0.3c2.2,0.1,5.2,4.1,6.1,6.9c6.2,20.1,7.2,40.8,5.5,61.7
		c-0.8,10.8-3.4,21.5-5.4,32.2c-1,5.8-4.4,8.3-10.8,8C178.6,188.1,167.9,188.4,156.9,188.4z"/>
	<path d="M121.9,290.9c8.8-13.6,17.3-26.9,26.5-41.2c7,18.3,19.1,24.8,38.2,19.5c-4,6.2-6.3,12.2-10.6,15.6c-3.8,3-9.7,3.4-14.8,4.5
		c-5.7,1.3-12.1,0.8-17.1,3.3C136.3,296.4,129.7,296.1,121.9,290.9z"/>
	<path d="M205.1,250.3c10.9,19.7,15.9,22.3,38,19.6c-3.5,5.6-5.7,12-10.1,15.1c-4.9,3.5-12.5,6.4-17.9,5.2
		c-8.8-1.8-16.3-2.4-24.1,2.7c-2.4,1.6-6.5,0.4-9.9,0.4c0.6-3,0.6-6.4,2.2-8.9C190.1,273.3,197.4,262.3,205.1,250.3z"/>
	<path d="M117.7,266.2c-11.5,0-20.5-9.1-20.4-20.9c0-11.6,9.2-20.5,21-20.2c11.1,0.2,20.1,9.3,20.4,20.5
		C138.8,256.7,129.2,266.2,117.7,266.2z M117.9,260.9c8.5,0,15.2-6.7,15.2-15.1c0.1-9-6.6-15.6-15.5-15.5c-8.5,0.1-15.2,6.7-15.4,15
		C102.1,253.9,109.2,260.9,117.9,260.9z"/>
	<path d="M195.3,245.5c0,11.7-8.9,20.7-20.7,20.6c-11.6,0-20.4-9-20.4-21c0.1-11.3,8.9-20,20.4-20.1
		C186.4,224.9,195.3,233.6,195.3,245.5z M175.1,260.9c8.4-0.1,15.1-6.8,15.2-15.2c0.1-8.9-6.7-15.6-15.6-15.5
		c-8.7,0.1-15,6.4-15.1,15.1C159.5,254.4,166.1,261,175.1,260.9z"/>
	<path d="M231.9,266.1c-11.5,0-20.7-9.1-20.8-20.7c-0.1-11.2,9.5-20.6,21.1-20.5c11.1,0.1,20.2,9.2,20.5,20.4
		C252.8,256.5,243.3,266.1,231.9,266.1z M231.7,260.9c8.6,0,16.1-7.2,15.8-15.6c-0.2-8.4-7-15-15.5-15.1
		c-8.6-0.1-15.6,6.4-15.8,14.7C216,253.6,223,260.8,231.7,260.9z"/>
	<path d="M178.6,39.5c0.2,0.8,1.5,3.3,1.5,5.7c0.2,7.4,0.3,14.9,0,22.2c-0.1,2.2-1.7,4.3-2.5,6.5c-0.9-2.1-2.1-4.1-2.7-6.3
		c-0.4-1.5-0.2-3.1-0.3-5.2c-9.3-1.6-18.6-3.1-27.8-4.7c-0.1-0.6-0.3-1.3-0.4-1.9C156.7,50.5,167.2,45.2,178.6,39.5z"/>
	<path d="M335.1,306.3c-2.3,0-4.7,0.4-7-0.1c-5.1-1.3-10.4-2.5-15.3-4.4c-8.2-3.1-15.4-3.8-23.3,1.8c-3.4,2.3-9.1,1.4-13.7,1.6
		c-1.8,0.1-3.7-0.7-5.4-1.4c-11.1-4.2-22.2-8.2-33.8,3.7c0.5-9.9,6.4-12.7,11.5-12.7c7.8,0,15.6,1.9,23.1,4.1
		c7.4,2.2,13.8,2.5,20.4-2.3c2.4-1.8,6.2-3,8.9-2.5c11.7,2.4,23.3,5.7,35,8.6C335.5,303.9,335.2,305.1,335.1,306.3z"/>
	<path d="M15.4,291.8c4.4,1.8,9,3.5,13.3,5.6c7,3.3,13.3,3.1,20.5-0.9c3.9-2.2,9.7-1.8,14.6-1.8c2.8,0,5.6,1.7,8.3,2.6
		c13.1,4.2,13.1,4.2,30-2.4c-6.2,10.8-11.1,12.9-22.6,9.9c-4.6-1.3-9.3-2.3-13.7-4c-6.2-2.3-11.6-1.7-17.4,1.8
		c-9.3,5.6-27.3,0.7-33.9-8.4C14.8,293.2,15.1,292.5,15.4,291.8z"/>
	<path d="M159.1,295.1c-8.8,9.2-23.3,12.4-36.2,5.6c2-0.4,4-0.8,6.1-1.2c5.2-0.8,10.5-1.3,15.7-2.5c4.6-1,9.1-2.7,13.7-4.2
		C158.6,293.6,158.9,294.4,159.1,295.1z"/>
	<path d="M214.9,298.6c-5.8,0.7-11.7,0.8-17.3,2.2c-5.8,1.5-11.3,4.2-18.9,7.1C182.7,297.3,204.3,292.1,214.9,298.6z"/>
	<path d="M180.2,206.1c0,3.1,0.3,6.4-0.1,9.4c-0.2,1.3-1.9,2.4-2.8,3.6c-0.8-1.2-2.3-2.2-2.4-3.4c-0.2-6.3-0.2-12.7,0-19
		c0-1,1.7-2.1,2.5-3.1c0.9,1.3,2.5,2.4,2.7,3.7C180.5,200.2,180.2,203.1,180.2,206.1z"/>
	<path d="M171.4,310.4c-4.3-2.6-7.6-4.7-12.2-7.6c3.7-3.3,6.7-6.2,10.1-8.7c1-0.7,3.4-1.2,4.1-0.5c1.2,0.9,2.4,3.1,2.1,4.4
		C174.6,301.9,173.1,305.6,171.4,310.4z"/>
	<path d="M114.3,310.4c-3.8-2.3-7.1-4.3-11.6-7c3.6-3.4,6.3-6.4,9.4-8.8c1-0.8,3.6-1,4.6-0.4c1,0.7,1.8,3.1,1.5,4.5
		C117.4,302.5,115.9,306.1,114.3,310.4z"/>
	<path d="M228.3,310.5c-4.2-2.6-7.6-4.7-11.6-7.2c3.6-3.4,6.4-6.3,9.5-8.9c1-0.8,3.6-0.9,4.5-0.2c1,0.7,1.9,3,1.6,4.3
		C231.6,302.3,230,305.9,228.3,310.5z"/>
	<path d="M127.9,244.7c-0.1,6.8-3.6,10.4-9.7,11.1c-5.5,0.6-11.4-4.8-10.9-10.4c0.5-5.9,3.8-10.1,10.2-10.2
		C124,235.2,127.3,238.9,127.9,244.7z"/>
	<path d="M174,255.8c-4.9-0.8-8.9-3.7-9.3-10.1c-0.3-5.9,4.3-10.8,10.2-10.6c6.3,0.2,9.7,4,10.3,9.9
		C185.9,250.5,180.4,255.8,174,255.8z"/>
	<path d="M231.8,235.1c6.2,0.6,9.9,3.8,10.2,10.1c0.3,6-4.6,11.1-10.4,10.6c-6.1-0.5-9.9-4.1-9.8-10.4
		C221.9,239.1,225.6,235.7,231.8,235.1z"/>
</g>
</svg>
