<?xml version="1.0" encoding="utf-8"?>
<!-- Generator: Adobe Illustrator 23.0.6, SVG Export Plug-In . SVG Version: 6.00 Build 0)  -->
<svg version="1.1" id="Calque_1" xmlns="http://www.w3.org/2000/svg" xmlns:xlink="http://www.w3.org/1999/xlink" x="0px" y="0px"
	 viewBox="0 0 1459.06 371.1" style="enable-background:new 0 0 1459.06 371.1;" xml:space="preserve">
<g>
	<path d="M834.34,108.96c22.46,0,44.35-1.13,66.07,0.31c22.19,1.47,32.83,13.56,34.61,35.17c1.69,20.44-7.83,33.58-28.65,39.62
		c-0.68,0.2-1.26,0.75-2.83,1.72c14.44,12.38,19.94,32.63,38.97,40.38c0,5.92,0,11.96,0,18.4c-13.09,1.29-22.17-5.08-29.52-14.34
		c-6.31-7.95-11.7-16.62-17.94-24.64c-9.82-12.61-23.16-16.35-39.23-14.35c0,17.6,0,35.04,0,53.04c-7.39,0-14.11,0-21.49,0
		C834.34,199.08,834.34,153.73,834.34,108.96z M856.03,169.92c13.35,0,26.05,0.72,38.63-0.21c11.27-0.83,17.45-8.47,17.71-19.2
		c0.33-13.46-4.18-20.72-16.67-21.99c-12.97-1.33-26.19-0.3-39.68-0.3C856.03,141.95,856.03,155.83,856.03,169.92z"/>
	<path d="M678.19,176.4c-1.01-39.23,27.12-69.57,65.36-70.49c44-1.06,73.45,26.15,73.71,70.04c0.24,40.21-26.22,69.19-65.58,70.42
		C707.43,247.75,679.33,220.77,678.19,176.4z M747.45,226.71c25.9,0.02,41.36-12.98,46.29-38.92c4.39-23.11-4.05-46.11-20.47-55.8
		c-33.26-19.62-71.77,2.05-72.86,41.01C699.47,206.38,717.25,226.68,747.45,226.71z"/>
	<path d="M640.23,107.87c7.52,0,14.04,0,21.14,0c0,45.31,0,90.64,0,136.47c-6.62,0-13.32,0-21.01,0c0-11.94,0.01-23.79,0-35.63
		c-0.02-11.22-3.91-16.77-14.69-20.13c-4.57-1.43-9.35-2.27-14.09-3.06c-11.95-2.01-23.92-3.85-36.34-5.83c0,20.92,0,42.42,0,64.54
		c-7.21,0-13.91,0-21.2,0c0-45.09,0-90.4,0-136.21c6.66,0,13.36,0,20.91,0c0,11.5,0,22.86,0,34.21c0.01,11,3.05,15.65,13.86,18.58
		c8.51,2.3,17.36,3.34,26,5.21c8.35,1.8,16.63,3.93,25.42,6.03C640.23,150.83,640.23,129.79,640.23,107.87z"/>
	<path d="M1077.57,244.84c5.25-12.73,10.06-24.4,14.88-36.06c12.98-31.39,26.08-62.72,38.81-94.21c2.08-5.15,4.39-7.41,10.29-7.22
		c14.25,0.46,14.25,0.12,19.74,13.38c16.01,38.63,32.04,77.26,48.04,115.89c0.96,2.31,1.74,4.68,3.04,8.2
		c-6.94,0-13.17,0.35-19.31-0.22c-1.78-0.16-4-2.63-4.85-4.55c-4.19-9.51-7.8-19.27-12.05-28.75c-0.91-2.02-3.65-4.54-5.57-4.56
		c-8.86-0.08-17.77,0.19-26.58,1.18c-19.2,2.15-31.66,14.15-40.44,30.12c-2.91,5.29-5.68,7.53-11.52,6.88
		C1087.8,244.46,1083.44,244.84,1077.57,244.84z M1165.45,184.64c-6.35-15.54-13.12-32.11-20.46-50.08
		c-8.65,21.41-16.78,41.53-24.21,59.93C1135.31,191.29,1149.96,188.06,1165.45,184.64z"/>
	<path d="M1309.1,218.65c0-36.93,0-73.65,0-112.46c21.68,1.42,43.05,1.32,63.89,4.62c20.87,3.31,32.18,18.42,34.89,38.99
		c1.25,9.47,1.3,19.43-0.13,28.86c-3.54,23.23-17.5,37.27-41.6,39.63C1347.58,220.11,1328.69,218.65,1309.1,218.65z M1330.95,125.68
		c0,26.38,0,50.1,0,73.38c9.82,0,19.01,0.64,28.07-0.14c16.25-1.41,24.95-9.92,26.61-26.05c0.77-7.48,0.59-15.26-0.53-22.69
		c-1.36-9.01-6.34-16.85-15.57-18.9C1357.09,128.52,1344.27,127.53,1330.95,125.68z"/>
	<path d="M1245.78,223.12c17.02,2.76,33.07,4.72,48.8,8.17c8.54,1.88,16.64,6.02,24.72,9.65c21.16,9.51,42.12,10.26,63.05-0.54
		c0.84-0.43,1.8-0.64,3.38-1.19c0,3.55,0,6.55,0,9.54c0,13.95-0.68,14.52-14.63,17.55c-19.86,4.31-39.32,2.48-57.12-6.71
		c-27.39-14.15-55.65-18.16-85.61-11.84c-1.19,0.25-2.47,0.03-4.11,0.03c0-46.5,0-92.73,0-139.61c6.84,0,13.75,0,21.52,0
		C1245.78,147.12,1245.78,185.92,1245.78,223.12z"/>
	<path d="M1007.64,217.79c11.32-27.8,22.02-54.04,32.69-80.29c3.24-7.98,6.64-15.9,9.54-24c1.59-4.43,3.8-6.57,8.79-6.09
		c5.02,0.48,10.11,0.1,16.42,0.1c-4.4,10.76-8.46,20.73-12.57,30.68c-13.82,33.47-27.77,66.89-41.35,100.46
		c-1.91,4.71-4.02,6.46-9.23,6.34c-15.08-0.34-15.04-0.08-20.81-14.01c-15.88-38.37-31.81-76.73-47.7-115.1
		c-1.04-2.52-1.92-5.1-2.87-7.65c0.84-0.32,1.07-0.48,1.3-0.49c20.51-1.42,20.49-1.42,28.2,17.56
		C982.34,155.54,994.64,185.78,1007.64,217.79z"/>
	<path d="M494.51,127.26c0,39.72,0,78.26,0,117.18c-7.46,0-14.18,0-21.5,0c0-38.93,0-77.49,0-116.89c-14.9,0-29.24,0-44.03,0
		c0-6.82,0-12.82,0-19.43c36.28,0,72.73,0,109.66,0c0,6.14,0,12.36,0,19.14C524.02,127.26,509.84,127.26,494.51,127.26z"/>
	<path d="M136.65,197.35c9.69-34.71,9.37-68.72,0.3-103.7c13.48,0,26.84-0.3,40.16,0.32c1.99,0.09,5.12,4.32,5.45,6.92
		c2.22,17.56,4.9,35.17,5.26,52.8c0.24,11.72-3.04,23.53-4.94,35.27c-0.99,6.15-4.38,8.85-11.1,8.54
		C160.19,196.95,148.55,197.35,136.65,197.35z"/>
	<path d="M84.16,211.58c-7.84-2.7-13.44-4.63-19.03-6.56c0.23-0.79,0.46-1.58,0.69-2.37c1.2,0.27,2.41,0.79,3.6,0.76
		c2.91-0.06,5.81-0.38,8.71-0.59c-0.28-2.84-0.02-5.86-0.92-8.49c-4.37-12.69,0.46-25.49,11.67-30.1
		c11.21-4.61,21.21,1.18,21.77,14.06c0.53,12.08-0.89,24.26-1.76,36.37c-0.44,6.06-1.67,12.06-2.34,18.11
		c-1.32,11.92,3.39,19.06,14.81,23.12c1.45,0.51,3.17,1.75,3.71,3.08c5.82,14.39,16.79,18.69,31.29,16.4
		c0.44-0.07,0.94,0.25,1.9,0.53c-4.29,8.91-8.14,17.8-20.4,17.25c-2.22-0.1-5.07-0.01-6.63,1.24c-9.21,7.36-18.44,4.26-27.96,0.99
		c-3.76-1.29-8.14-2.73-11.8-1.98c-7.02,1.43-10.66-1.76-11.43-7.56c-1-7.55-2.24-15.8-0.27-22.88
		c6.29-22.66,13.99-44.92,21.22-67.32c1.44-4.46,3.33-9.47-1.39-12.38c-2.67-1.65-7.45-1.74-10.48-0.53
		c-5.15,2.07-6.96,6.86-6.16,12.6C83.58,199.87,83.66,204.49,84.16,211.58z"/>
	<path d="M262.21,296.66c0.66-2.06,0.92-4.37,2.03-6.14c6.63-10.53,13.41-20.96,20.25-31.35c1.07-1.62,2.53-3.2,4.18-4.18
		c9.55-5.68,12.26-13.84,10.55-24.61c-2.15-13.53-3.86-27.18-4.7-40.84c-0.38-6.12,1-12.7,3.13-18.5c1.78-4.87,5.32-9.9,12.82-5.18
		c0.27-0.56,0.54-1.13,0.82-1.69c-2.27-4.23-4.54-8.46-7.61-14.16c6.54,3.43,11.64,5.6,16.15,8.64c3.24,2.19,6.39,5.13,8.37,8.45
		c5.26,8.84,9.86,18.07,15.51,28.61c-12.45-5.19-23.36-12.74-35.08-18.44c-0.66,0.48-1.32,0.96-1.99,1.44
		c4.04,10.64,8.08,21.27,11.75,30.94c-7.13-4.41-7.78-5.41-13.43-21.85c-4.12,3.33-5.33,7.37-1.69,12.69
		c13.22,19.31,15.61,42.55,23.81,63.67c1.5,3.87,1.96,8.56,1.48,12.71c-1.94,16.75-16.63,25.72-32.92,20.57
		c-2.66-0.84-5.47-1.31-8-2.42c-8.35-3.65-16.18-3.27-23.48,2.8C263.51,297.43,262.86,297.04,262.21,296.66z"/>
	<path d="M230.41,197.36c9.95-35.04,9.67-68.95,0.3-103.76c11.48,0,23.07-0.57,34.53,0.43c2.68,0.23,6.21,5.46,7.1,8.97
		c5.03,19.82,6.23,40.07,4,60.38c-1.04,9.5-3.31,18.88-5.35,28.25c-0.9,4.16-3.68,6-8.34,5.85
		C252.01,197.12,241.37,197.36,230.41,197.36z"/>
	<path d="M185.99,197.34c9.91-35.1,9.67-69.05,0.23-103.73c11.69,0,23.32-0.34,34.89,0.31c2.11,0.12,5,3.93,5.82,6.57
		c5.94,19.17,6.86,38.94,5.24,58.76c-0.84,10.29-3.2,20.47-5.1,30.66c-1.03,5.5-4.25,7.87-10.27,7.57
		C206.68,196.97,196.51,197.34,185.99,197.34z"/>
	<path d="M152.6,295.04c8.35-12.96,16.47-25.56,25.32-39.28c6.66,17.37,18.24,23.62,36.41,18.58c-3.84,5.93-6.01,11.59-10.09,14.86
		c-3.55,2.85-9.22,3.24-14.05,4.3c-5.41,1.19-11.47,0.78-16.28,3.09C166.45,300.19,160.11,299.91,152.6,295.04z"/>
	<path d="M231.95,256.33c10.41,18.84,15.17,21.27,36.16,18.67c-3.31,5.26-5.35,11.41-9.6,14.44c-4.67,3.34-11.85,6.08-17.12,5.02
		c-8.42-1.7-15.53-2.34-23.04,2.56c-2.27,1.48-6.24,0.36-9.43,0.43c0.65-2.86,0.61-6.14,2.06-8.51
		C217.56,278.21,224.56,267.73,231.95,256.33z"/>
	<path d="M148.64,271.38c-11.02-0.01-19.49-8.69-19.44-19.94c0.04-11.09,8.75-19.47,20-19.28c10.63,0.19,19.25,8.86,19.36,19.48
		C168.67,262.4,159.6,271.39,148.64,271.38z M148.8,266.35c8.09-0.05,14.49-6.4,14.54-14.4c0.05-8.59-6.26-14.9-14.82-14.83
		c-8.11,0.07-14.54,6.36-14.66,14.34C133.75,259.67,140.5,266.4,148.8,266.35z"/>
	<path d="M222.57,251.72c0.02,11.21-8.47,19.67-19.67,19.61c-11.14-0.05-19.43-8.62-19.38-20c0.05-10.75,8.49-19.1,19.38-19.18
		C214.13,232.07,222.55,240.45,222.57,251.72z M203.31,266.37c8.02-0.11,14.43-6.52,14.48-14.47c0.06-8.47-6.39-14.86-14.89-14.78
		c-8.29,0.08-14.33,6.14-14.35,14.39C188.52,260.2,194.77,266.49,203.31,266.37z"/>
	<path d="M257.49,271.32c-10.96,0.03-19.73-8.71-19.8-19.74c-0.07-10.69,9.11-19.59,20.07-19.46c10.59,0.13,19.32,8.8,19.46,19.35
		C277.37,262.25,268.4,271.28,257.49,271.32z M257.26,266.35c8.23,0.05,15.34-6.92,15.14-14.86c-0.2-7.96-6.73-14.3-14.8-14.35
		c-8.19-0.05-14.86,6.14-15.08,14C242.3,259.35,249.02,266.29,257.26,266.35z"/>
	<path d="M206.7,55.28c0.24,0.85,1.36,3.13,1.44,5.44c0.25,7.08,0.28,14.17-0.03,21.24c-0.09,2.09-1.58,4.12-2.43,6.17
		c-0.91-2-2.01-3.93-2.65-6.01c-0.43-1.39-0.21-2.98-0.31-5.01c-8.86-1.5-17.68-2.99-26.49-4.49c-0.14-0.59-0.28-1.18-0.42-1.76
		C185.81,65.82,195.79,60.78,206.7,55.28z"/>
	<path d="M355.9,309.71c-2.23,0-4.55,0.41-6.67-0.08c-4.92-1.16-9.87-2.43-14.58-4.25c-7.78-3.01-14.73-3.56-22.23,1.69
		c-3.19,2.23-8.69,1.3-13.15,1.46c-1.69,0.06-3.47-0.72-5.12-1.34c-10.63-3.97-21.23-7.82-32.16,3.51
		c0.48-9.4,6.14-12.07,11.04-12.08c7.36-0.02,14.91,1.76,22.03,3.9c7.06,2.12,13.17,2.43,19.4-2.18c2.26-1.67,5.93-2.91,8.54-2.37
		c11.2,2.33,22.25,5.4,33.36,8.2C356.21,307.35,356.05,308.53,355.9,309.71z"/>
	<path d="M51.14,295.76c4.25,1.74,8.58,3.32,12.74,5.27c6.7,3.14,12.69,3.05,19.45-0.85c3.73-2.15,9.19-1.71,13.86-1.67
		c2.65,0.02,5.29,1.61,7.94,2.45c12.5,3.96,12.5,3.95,28.64-2.28c-5.88,10.27-10.57,12.33-21.53,9.38c-4.4-1.19-8.88-2.2-13.13-3.81
		c-5.94-2.24-11.08-1.57-16.6,1.71c-8.93,5.3-26.04,0.73-32.28-8C50.54,297.22,50.84,296.49,51.14,295.76z"/>
	<path d="M188.08,299.03c-8.4,8.83-22.16,11.81-34.46,5.31c1.92-0.37,3.83-0.79,5.75-1.09c4.99-0.78,10.04-1.25,14.96-2.35
		c4.44-0.99,8.72-2.64,13.08-4.01C187.64,297.6,187.86,298.31,188.08,299.03z"/>
	<path d="M241.31,302.31c-5.51,0.66-11.16,0.77-16.5,2.12c-5.54,1.4-10.77,4-17.99,6.79C210.59,301.09,231.24,296.13,241.31,302.31z
		"/>
	<path d="M208.22,214.1c0,3.01,0.27,6.07-0.13,9.03c-0.17,1.25-1.75,2.31-2.69,3.45c-0.8-1.07-2.24-2.11-2.28-3.2
		c-0.23-6.02-0.22-12.06,0.01-18.08c0.04-1.03,1.55-2.01,2.38-3.01c0.91,1.18,2.41,2.26,2.61,3.54
		C208.51,208.53,208.23,211.33,208.22,214.1z"/>
	<path d="M199.81,313.63c-4.07-2.53-7.24-4.5-11.59-7.21c3.52-3.09,6.42-5.86,9.58-8.27c0.96-0.73,3.18-1.12,3.92-0.53
		c1.14,0.9,2.31,2.96,2.03,4.22C202.94,305.48,201.43,308.98,199.81,313.63z"/>
	<path d="M145.44,313.56c-3.65-2.21-6.83-4.14-11.12-6.74c3.37-3.21,6.02-6.06,9.04-8.43c1.02-0.8,3.45-1.05,4.41-0.38
		c1.02,0.72,1.71,2.99,1.4,4.31C148.31,305.96,146.85,309.46,145.44,313.56z"/>
	<path d="M254.15,313.68c-4.04-2.52-7.19-4.49-11.07-6.91c3.36-3.17,6.07-6.05,9.15-8.46c0.98-0.77,3.35-0.89,4.34-0.22
		c1.01,0.69,1.78,2.89,1.48,4.14C257.17,305.82,255.7,309.27,254.15,313.68z"/>
	<path d="M747.2,189.14c-4.14-3.96-8.51-8.13-13.01-12.43c4.9-4.69,9.4-9,13.63-13.06c3.87,3.97,8.2,8.42,12.23,12.55
		C756.27,180.01,751.87,184.45,747.2,189.14z"/>
	<path d="M158.44,250.9c-0.11,6.46-3.35,9.88-9.17,10.58c-5.25,0.63-10.86-4.59-10.39-9.85c0.5-5.65,3.57-9.63,9.7-9.7
		C154.62,241.86,157.8,245.36,158.44,250.9z"/>
	<path d="M202.29,261.55c-4.73-0.84-8.53-3.55-8.88-9.56c-0.32-5.61,4.15-10.27,9.74-10.11c6,0.17,9.21,3.76,9.84,9.4
		C213.56,256.49,208.43,261.53,202.29,261.55z"/>
	<path d="M257.35,241.75c5.92,0.56,9.41,3.59,9.73,9.6c0.31,5.67-4.42,10.64-9.87,10.13c-5.78-0.55-9.4-3.85-9.31-9.92
		C248,245.57,251.46,242.4,257.35,241.75z"/>
</g>
</svg>
